<svg xmlns="http://www.w3.org/2000/svg" viewBox="0 0 1200 630" fill="none">
  <defs>
    <!-- ═══ METAINCOGNITA BRANDED BACKGROUND ═══ -->
    <!-- Shared across all simulator og:images -->

    <!-- Base gradient: deep navy to near-black -->
    <linearGradient id="mc-bg" x1="0%" y1="0%" x2="100%" y2="100%">
      <stop offset="0%" stop-color="#0a0c1a"/>
      <stop offset="50%" stop-color="#080a16"/>
      <stop offset="100%" stop-color="#060810"/>
    </linearGradient>

    <!-- Technical graph paper: fine grid -->
    <pattern id="mc-grid-fine" width="20" height="20" patternUnits="userSpaceOnUse">
      <path d="M 20 0 L 0 0 0 20" fill="none" stroke="#1e2848" stroke-width="0.6"/>
    </pattern>

    <!-- Technical graph paper: major grid -->
    <pattern id="mc-grid-major" width="100" height="100" patternUnits="userSpaceOnUse">
      <path d="M 100 0 L 0 0 0 100" fill="none" stroke="#283458" stroke-width="1.2"/>
    </pattern>

    <!-- Dot grid overlay (engineering paper feel) -->
    <pattern id="mc-dots" width="20" height="20" patternUnits="userSpaceOnUse">
      <circle cx="10" cy="10" r="0.7" fill="#2a3460" opacity="0.8"/>
    </pattern>

    <!-- Subtle radial vignette -->
    <radialGradient id="mc-vignette" cx="50%" cy="40%" r="70%">
      <stop offset="0%" stop-color="transparent"/>
      <stop offset="100%" stop-color="#000" stop-opacity="0.4"/>
    </radialGradient>

    <!-- Corner accent marks (technical drawing feel) -->
    <symbol id="mc-corner" viewBox="0 0 30 30">
      <path d="M 0 10 L 0 0 L 10 0" fill="none" stroke="#354068" stroke-width="1.2"/>
      <circle cx="0" cy="0" r="2" fill="#252a48"/>
    </symbol>

    <!-- Metaincognita wordmark positioning line -->
    <linearGradient id="mc-wordmark-line" x1="0%" y1="0%" x2="100%" y2="0%">
      <stop offset="0%" stop-color="transparent"/>
      <stop offset="15%" stop-color="#252a48"/>
      <stop offset="85%" stop-color="#252a48"/>
      <stop offset="100%" stop-color="transparent"/>
    </linearGradient>

    <!-- ═══ GAME-SPECIFIC DEFS ═══ -->

    <filter id="glow">
      <feGaussianBlur stdDeviation="3" result="blur"/>
      <feMerge><feMergeNode in="blur"/><feMergeNode in="SourceGraphic"/></feMerge>
    </filter>
    <filter id="cardShadow">
      <feDropShadow dx="0" dy="4" stdDeviation="6" flood-color="#000" flood-opacity="0.5"/>
    </filter>
    <linearGradient id="gold" x1="0%" y1="0%" x2="100%" y2="0%">
      <stop offset="0%" stop-color="#c9a227"/>
      <stop offset="50%" stop-color="#ffd60a"/>
      <stop offset="100%" stop-color="#c9a227"/>
    </linearGradient>
    <linearGradient id="chartGrad" x1="0%" y1="0%" x2="100%" y2="0%">
      <stop offset="0%" stop-color="#4ade80" stop-opacity="0.8"/>
      <stop offset="100%" stop-color="#22c55e" stop-opacity="0.4"/>
    </linearGradient>
    <linearGradient id="cardFace" x1="0%" y1="0%" x2="0%" y2="100%">
      <stop offset="0%" stop-color="#ffffff"/>
      <stop offset="100%" stop-color="#f0f0f5"/>
    </linearGradient>
  </defs>

  <!-- ═══ BRANDED BACKGROUND LAYERS ═══ -->
  <rect width="1200" height="630" fill="url(#mc-bg)"/>
  <rect width="1200" height="630" fill="url(#mc-grid-fine)" opacity="0.75"/>
  <rect width="1200" height="630" fill="url(#mc-grid-major)" opacity="0.8"/>
  <rect width="1200" height="630" fill="url(#mc-dots)" opacity="0.7"/>
  <rect width="1200" height="630" fill="url(#mc-vignette)"/>

  <!-- Corner registration marks -->
  <use href="#mc-corner" x="16" y="16" width="30" height="30"/>
  <use href="#mc-corner" x="1184" y="16" width="30" height="30" transform="scale(-1,1) translate(-1200,0)"/>
  <use href="#mc-corner" x="16" y="614" width="30" height="30" transform="scale(1,-1) translate(0,-630)"/>
  <use href="#mc-corner" x="1184" y="614" width="30" height="30" transform="scale(-1,-1) translate(-1200,-630)"/>

  <!-- Bottom branding line -->
  <line x1="0" y1="600" x2="1200" y2="600" stroke="url(#mc-wordmark-line)" stroke-width="0.5"/>
  <text x="600" y="618" fill="#3a4570" font-family="system-ui, sans-serif" font-size="10" text-anchor="middle" letter-spacing="4" font-weight="300">METAINCOGNITA</text>

  <!-- ═══ GAME-SPECIFIC CONTENT ═══ -->

  <!-- Convergence chart (right side, subtle) -->
  <g opacity="0.25" transform="translate(0, 40)">
    <line x1="680" y1="280" x2="1160" y2="280" stroke="#4ade80" stroke-width="1" stroke-dasharray="6 4" opacity="0.4"/>
    <polyline
      points="700,220 730,340 760,250 790,310 820,270 850,295 880,275 910,285 940,278 970,282 1000,279 1030,280.5 1060,280 1090,279.8 1120,280 1150,280"
      stroke="url(#chartGrad)" stroke-width="2" fill="none" filter="url(#glow)"
    />
    <text x="1158" y="276" fill="#4ade80" font-family="monospace" font-size="9" opacity="0.6">99.54%</text>
    <text x="870" y="370" fill="#475569" font-family="monospace" font-size="9">convergence over 100,000 hands</text>
  </g>

  <!-- Title -->
  <text x="80" y="80" fill="url(#gold)" font-family="'Fira Code', 'SF Mono', monospace" font-size="42" font-weight="700" filter="url(#glow)">
    Video Poker Trainer
  </text>
  <text x="82" y="110" fill="#64748b" font-family="system-ui, sans-serif" font-size="16">
    Exhaustive EV analysis for every hand, every hold, every draw
  </text>

  <!-- Five cards: Full House (A A A K K) -->
  <g transform="translate(80, 160)" filter="url(#cardShadow)">
    <!-- Card 1: Ace of Spades (HELD) -->
    <g transform="translate(0, -12)">
      <rect x="-4" y="-4" width="108" height="158" rx="12" fill="none" stroke="#c9a227" stroke-width="2" opacity="0.6"/>
      <rect x="0" y="0" width="100" height="150" rx="10" fill="url(#cardFace)" stroke="#d0d0d8" stroke-width="1"/>
      <text x="10" y="28" fill="#1a1a2e" font-family="'Fira Code', monospace" font-size="24" font-weight="700">A</text>
      <text x="12" y="44" fill="#1a1a2e" font-family="serif" font-size="16">&#x2660;</text>
      <text x="50" y="90" fill="#1a1a2e" font-family="serif" font-size="44" text-anchor="middle">&#x2660;</text>
      <g transform="translate(100, 150) rotate(180)">
        <text x="10" y="28" fill="#1a1a2e" font-family="'Fira Code', monospace" font-size="24" font-weight="700">A</text>
        <text x="12" y="44" fill="#1a1a2e" font-family="serif" font-size="16">&#x2660;</text>
      </g>
      <rect x="18" y="-22" width="64" height="18" rx="4" fill="#c9a227"/>
      <text x="50" y="-9" fill="#1a1a2e" font-family="'Fira Code', monospace" font-size="10" font-weight="800" text-anchor="middle" letter-spacing="1.5">HELD</text>
    </g>

    <!-- Card 2: Ace of Hearts (HELD) -->
    <g transform="translate(120, -12)">
      <rect x="-4" y="-4" width="108" height="158" rx="12" fill="none" stroke="#c9a227" stroke-width="2" opacity="0.6"/>
      <rect x="0" y="0" width="100" height="150" rx="10" fill="url(#cardFace)" stroke="#d0d0d8" stroke-width="1"/>
      <text x="10" y="28" fill="#e63946" font-family="'Fira Code', monospace" font-size="24" font-weight="700">A</text>
      <text x="12" y="44" fill="#e63946" font-family="serif" font-size="16">&#x2665;</text>
      <text x="50" y="90" fill="#e63946" font-family="serif" font-size="44" text-anchor="middle">&#x2665;</text>
      <g transform="translate(100, 150) rotate(180)">
        <text x="10" y="28" fill="#e63946" font-family="'Fira Code', monospace" font-size="24" font-weight="700">A</text>
        <text x="12" y="44" fill="#e63946" font-family="serif" font-size="16">&#x2665;</text>
      </g>
      <rect x="18" y="-22" width="64" height="18" rx="4" fill="#c9a227"/>
      <text x="50" y="-9" fill="#1a1a2e" font-family="'Fira Code', monospace" font-size="10" font-weight="800" text-anchor="middle" letter-spacing="1.5">HELD</text>
    </g>

    <!-- Card 3: Ace of Diamonds (HELD) -->
    <g transform="translate(240, -12)">
      <rect x="-4" y="-4" width="108" height="158" rx="12" fill="none" stroke="#c9a227" stroke-width="2" opacity="0.6"/>
      <rect x="0" y="0" width="100" height="150" rx="10" fill="url(#cardFace)" stroke="#d0d0d8" stroke-width="1"/>
      <text x="10" y="28" fill="#457b9d" font-family="'Fira Code', monospace" font-size="24" font-weight="700">A</text>
      <text x="12" y="44" fill="#457b9d" font-family="serif" font-size="16">&#x2666;</text>
      <text x="50" y="90" fill="#457b9d" font-family="serif" font-size="44" text-anchor="middle">&#x2666;</text>
      <g transform="translate(100, 150) rotate(180)">
        <text x="10" y="28" fill="#457b9d" font-family="'Fira Code', monospace" font-size="24" font-weight="700">A</text>
        <text x="12" y="44" fill="#457b9d" font-family="serif" font-size="16">&#x2666;</text>
      </g>
      <rect x="18" y="-22" width="64" height="18" rx="4" fill="#c9a227"/>
      <text x="50" y="-9" fill="#1a1a2e" font-family="'Fira Code', monospace" font-size="10" font-weight="800" text-anchor="middle" letter-spacing="1.5">HELD</text>
    </g>

    <!-- Card 4: King of Clubs (HELD) -->
    <g transform="translate(360, -12)">
      <rect x="-4" y="-4" width="108" height="158" rx="12" fill="none" stroke="#c9a227" stroke-width="2" opacity="0.6"/>
      <rect x="0" y="0" width="100" height="150" rx="10" fill="url(#cardFace)" stroke="#d0d0d8" stroke-width="1"/>
      <text x="10" y="28" fill="#2d6a4f" font-family="'Fira Code', monospace" font-size="24" font-weight="700">K</text>
      <text x="12" y="44" fill="#2d6a4f" font-family="serif" font-size="16">&#x2663;</text>
      <text x="50" y="90" fill="#2d6a4f" font-family="serif" font-size="44" text-anchor="middle">&#x2663;</text>
      <g transform="translate(100, 150) rotate(180)">
        <text x="10" y="28" fill="#2d6a4f" font-family="'Fira Code', monospace" font-size="24" font-weight="700">K</text>
        <text x="12" y="44" fill="#2d6a4f" font-family="serif" font-size="16">&#x2663;</text>
      </g>
      <rect x="18" y="-22" width="64" height="18" rx="4" fill="#c9a227"/>
      <text x="50" y="-9" fill="#1a1a2e" font-family="'Fira Code', monospace" font-size="10" font-weight="800" text-anchor="middle" letter-spacing="1.5">HELD</text>
    </g>

    <!-- Card 5: King of Hearts (HELD) -->
    <g transform="translate(480, -12)">
      <rect x="-4" y="-4" width="108" height="158" rx="12" fill="none" stroke="#c9a227" stroke-width="2" opacity="0.6"/>
      <rect x="0" y="0" width="100" height="150" rx="10" fill="url(#cardFace)" stroke="#d0d0d8" stroke-width="1"/>
      <text x="10" y="28" fill="#e63946" font-family="'Fira Code', monospace" font-size="24" font-weight="700">K</text>
      <text x="12" y="44" fill="#e63946" font-family="serif" font-size="16">&#x2665;</text>
      <text x="50" y="90" fill="#e63946" font-family="serif" font-size="44" text-anchor="middle">&#x2665;</text>
      <g transform="translate(100, 150) rotate(180)">
        <text x="10" y="28" fill="#e63946" font-family="'Fira Code', monospace" font-size="24" font-weight="700">K</text>
        <text x="12" y="44" fill="#e63946" font-family="serif" font-size="16">&#x2665;</text>
      </g>
      <rect x="18" y="-22" width="64" height="18" rx="4" fill="#c9a227"/>
      <text x="50" y="-9" fill="#1a1a2e" font-family="'Fira Code', monospace" font-size="10" font-weight="800" text-anchor="middle" letter-spacing="1.5">HELD</text>
    </g>
  </g>

  <!-- Result display -->
  <text x="355" y="365" fill="#ffd60a" font-family="'Fira Code', monospace" font-size="22" font-weight="700" text-anchor="middle" filter="url(#glow)">
    &#x2501;&#x2501;  FULL HOUSE &#x2014; $11.25  &#x2501;&#x2501;
  </text>

  <!-- EV analysis data -->
  <g transform="translate(80, 410)" opacity="0.6">
    <text x="0" y="0" fill="#4ade80" font-family="'Fira Code', monospace" font-size="11" font-weight="700">OPTIMAL PLAY</text>
    <text x="0" y="20" fill="#94a3b8" font-family="'Fira Code', monospace" font-size="11">Hold all 5 &#x2014; pat hand  EV: 9.0000</text>
    <text x="0" y="40" fill="#64748b" font-family="'Fira Code', monospace" font-size="10">#1  A&#x2660; A&#x2665; A&#x2666; K&#x2663; K&#x2665;  Hold all    9.0000</text>
    <text x="0" y="56" fill="#475569" font-family="'Fira Code', monospace" font-size="10">#2  A&#x2660; A&#x2665; A&#x2666;          Hold trips  4.2384</text>
    <text x="0" y="72" fill="#334155" font-family="'Fira Code', monospace" font-size="10">#3  A&#x2660; A&#x2665; A&#x2666; K&#x2663;      Hold 3+1    3.8712</text>
  </g>

  <!-- Stats badge (bottom right) -->
  <g transform="translate(750, 440)">
    <rect x="0" y="0" width="380" height="130" rx="10" fill="rgba(10, 12, 26, 0.85)" stroke="#1a1e38" stroke-width="1"/>
    <text x="20" y="24" fill="#64748b" font-family="'Fira Code', monospace" font-size="9" font-weight="700" letter-spacing="1.5">SESSION</text>
    <text x="20" y="48" fill="#e2e8f0" font-family="'Fira Code', monospace" font-size="13">Hands: <tspan fill="#ffd60a">147</tspan>   Mistakes: <tspan fill="#4ade80">3</tspan></text>
    <text x="20" y="68" fill="#e2e8f0" font-family="'Fira Code', monospace" font-size="13">EV Lost: <tspan fill="#f87171">$4.20</tspan>   Return: <tspan fill="#4ade80">99.1%</tspan></text>
    <text x="20" y="96" fill="#64748b" font-family="'Fira Code', monospace" font-size="9" font-weight="700" letter-spacing="1.5">BOT COMPARISON</text>
    <text x="20" y="116" fill="#94a3b8" font-family="'Fira Code', monospace" font-size="11">You: <tspan fill="#fbbf24">99.1%</tspan>  Pat: <tspan fill="#4ade80">99.5%</tspan>  Gary: <tspan fill="#f87171">96.3%</tspan></text>
  </g>

  <!-- Bottom accent line (game-specific color: gold for VP) -->
  <rect x="0" y="594" width="1200" height="4" fill="url(#gold)" opacity="0.4"/>
</svg>
